# xmcd
# 
# Track frame offsets:
#     150
#     12560
#     24447
#     38602
#     57315
#     70335
#     85325
#     102290
#     116797
#     129332
#     142052
#     156300
#     171620
#     187335
#     203057
#     218355
# 
# Disc length: 3080
# 
# Revision: 6
# Processed by: cddbd v1.5.2PL0 Copyright (c) Steve Scherf et al.
# Submitted via: fre:ac v1.0.17
# 
DISCID=ec0c0610
DTITLE=Various Artist - Kilometer 330 - Die schönsten Country- und Trucker Songs - Folge 4
DYEAR=1992
DGENRE=Country
TTITLE0=Jonny Hill - Ich bin für die Liebe
TTITLE1=Linda Feller - Es gibt Männer, soviel Männer
TTITLE2=Tom Astor - Take it Easy, nimm's leicht
TTITLE3=Dagmar - Gelbe Rosen
TTITLE4=Dickey Lee - Die Tür steht immer noch offen
TTITLE5=Hanna and Daana - Hört er Contry, wird er wach
TTITLE6=Jonny Hill - Rosen für Mama
TTITLE7=Joe Hodgkins - Hilly Billy Western Willy
TTITLE8=Truck Stop - Der wilde, wilde Westen
TTITLE9=Country Rose - Hallo Country Rose
TTITLE10=Jonny Hill - Deine Liebe war so zärtlich
TTITLE11=Frank Baum - Wie eine Feder im Wind
TTITLE12=Max Zwo - Im Cowboyhimmel
TTITLE13=Greyhounds - Louisiana Cajun Band
TTITLE14=Tex Haper - Geld ist etwas wunderbares
TTITLE15=Mike Herman - Verliebt in Country
EXTD=YEAR: 1992 ID3G: 2
EXTT0=
EXTT1=
EXTT2=
EXTT3=
EXTT4=
EXTT5=
EXTT6=
EXTT7=
EXTT8=
EXTT9=
EXTT10=
EXTT11=
EXTT12=
EXTT13=
EXTT14=
EXTT15=
PLAYORDER=
